<svg width="938" height="562" viewBox="0 0 938 562" fill="none" xmlns="http://www.w3.org/2000/svg">
<path d="M933.4 495.4H4.5C2.01472 495.4 0 497.415 0 499.9V556.9C0 559.385 2.01472 561.4 4.5 561.4H933.4C935.885 561.4 937.9 559.385 937.9 556.9V499.9C937.9 497.415 935.885 495.4 933.4 495.4Z" fill="#F8F4EB"/>
<path d="M692.5 358.3C700.2 394.9 726.2 417.5 764.3 416.8C758.8 406.1 756.9 393.7 754.7 381.9C734.1 270.9 722.9 155 705.2 43.2C703.7 33.5 700.6 -7.70004 683.7 6.09996C630.1 108.9 583.6 215.8 531.6 319.5C528.8 325.1 525.5 332.3 522.7 337.4C521.9 338.9 521.5 341.9 519 339.5L370.3 33.5C363.8 20.9 346 -17.1 337.7 16.1C333.3 33.7 320.4 106.4 320.9 121.9C321.1 128.2 329.9 150.2 331.7 159.5C345.2 232.2 335.4 316.4 296.2 379.6C291.1 387.9 281.8 397.3 278 405.1C273.3 414.8 273.2 428.1 261.4 433.9C254.4 437.3 247.6 435.7 241.2 437.3C236.2 438.5 225.9 442.5 232.3 447.1C232.9 447.5 233.7 447.9 234.6 448.2C235.4 448.4 236.3 448.6 237.3 448.8H363.5C368.4 448.2 376.7 443.8 372.6 438.8C370.3 436 334 438.5 325.6 427.4C318.3 417.7 324.4 399.1 324.2 387.7L354.3 164.8C356.4 165 357.1 167.1 358 168.7C404.5 254.3 438.9 347.4 488.5 431.5C497.9 447.3 503.1 458.2 514.9 435.4L650.2 158.1L656.7 191.1L673.7 318.4C693.8 323.3 689.4 342.3 692.8 358.5L692.5 358.3Z" fill="#F8F4EB"/>
<path d="M241.1 24.8C225.9 14.6 195 0 176.8 0H1.19986C1.59986 2.1 0.599863 9.50001 1.19986 10.1C2.49986 11.3 24.3999 11.2 33.9999 21.8C42.5999 31.2 44.2999 53.8 44.8999 66.3C50.8999 179.1 41.9999 294.4 42.6999 407.1C39.1999 426.2 30.6999 432.6 12.9999 437.9C3.99987 440.6 -0.400137 435.6 1.19986 450.4H171.8C179.1 450.4 198.2 445 205.9 442.5C356.6 392 364.3 107.8 241.1 24.8ZM163.3 433.6C154.5 434.4 125.3 434.8 118.4 431.5C112.7 428.8 112.5 421.3 110.6 415.8C112.6 298.4 101.7 173 108.7 56.2C109.2 48.6 111.3 27.5 116 22.3C125.5 11.9 170 14.2 183.2 18.8C254.5 43.8 267.1 189.7 261.7 252.9C256.8 309.7 234.7 427 163.4 433.6H163.3Z" fill="#F8F4EB"/>
<path d="M900.9 297.7C884.5 225.3 811.4 193.6 763.5 146.8C751 134.6 740 124.6 735.4 106.8C725.7 69 747.6 35.6 786.9 31.8C831.3 27.5 866.3 44.1 877.4 89.2C878.6 94 877.7 102 880 105.1C882.9 108.9 889.9 108.7 890.2 103.3C892.1 74.6 892.7 45.3 892.7 16.7C890.4 11.9 856 5.79995 849 4.99995C821.6 1.79995 785.6 1.89995 759.1 9.19995C750.8 11.5 717.5 25.1 714.5 31.9L744 237.3C776.9 266.2 830.2 295.2 840.7 341.1C863.1 439.8 711.8 463.7 683.4 368.9C681.4 362.2 678.2 332.3 676.6 331.2C669 326.1 665.5 340.2 665 345.4C663.1 363.9 661.9 387.4 661.5 405.8C661 432 660.4 438.2 685.9 447.1C792.6 484.6 930.7 429.6 900.8 297.7H900.9Z" fill="#F8F4EB"/>
<path d="M43.8999 512.2H39.3999V543.6H43.8999V512.2Z" fill="#0B273C"/>
<path d="M41.5999 503.5C40.8999 503.5 40.1999 503.8 39.6999 504.3C39.1999 504.8 38.8999 505.4 38.8999 506.2C38.8999 507 39.1999 507.6 39.6999 508.1C40.1999 508.6 40.7999 508.9 41.5999 508.9C42.3999 508.9 42.9999 508.6 43.4999 508.1C43.9999 507.6 44.2999 507 44.2999 506.2C44.2999 505.4 43.9999 504.8 43.4999 504.3C42.9999 503.8 42.3999 503.5 41.5999 503.5Z" fill="#0B273C"/>
<path d="M70.7998 528.5C69.6998 527.9 68.3998 527.4 67.0998 527C65.6998 526.6 64.3998 526.3 62.9998 525.9C61.6998 525.6 60.3998 525.2 59.2998 524.8C58.1998 524.4 57.2998 523.9 56.5998 523.2C55.8998 522.5 55.4998 521.7 55.4998 520.6C55.4998 519.5 55.7998 518.8 56.2998 518.1C56.7998 517.4 57.6998 516.8 58.7998 516.3C59.8998 515.9 61.3998 515.6 63.0998 515.6C64.7998 515.6 65.9998 515.8 67.3998 516.2C68.8998 516.6 70.2998 517.3 71.6998 518.1L73.1998 514.5C71.8998 513.6 70.2998 512.9 68.4998 512.4C66.6998 511.9 64.8998 511.7 63.0998 511.7C60.3998 511.7 58.0998 512.1 56.2998 512.9C54.4998 513.7 53.1998 514.8 52.3998 516.2C51.4998 517.6 51.0998 519 51.0998 520.7C51.0998 522.4 51.3998 523.7 52.0998 524.8C52.7998 525.9 53.6998 526.7 54.7998 527.3C55.8998 527.9 57.1998 528.4 58.4998 528.8C59.8998 529.2 61.1998 529.6 62.5998 529.9C63.8998 530.2 65.1998 530.5 66.2998 531C67.3998 531.4 68.2998 531.9 68.9998 532.6C69.6998 533.3 70.0998 534.1 70.0998 535.2C70.0998 536.3 69.7998 537 69.2998 537.7C68.7998 538.4 67.8998 539 66.7998 539.4C65.6998 539.8 64.1998 540 62.3998 540C60.5998 540 58.4998 539.7 56.5998 539C54.6998 538.3 53.1998 537.4 51.9998 536.4L50.2998 539.9C51.5998 541.1 53.2998 542 55.4998 542.7C57.3998 543.3 59.3998 543.7 61.4998 543.8L60.4998 547.6H61.6998C62.5998 547.6 63.1998 547.8 63.5998 548.1C63.9998 548.4 64.1998 548.8 64.1998 549.4C64.1998 550 63.9998 550.4 63.5998 550.7C63.1998 551 62.5998 551.2 61.6998 551.2C60.7998 551.2 60.5998 551.2 60.0998 551C59.5998 550.9 59.0998 550.7 58.5998 550.4L57.6998 552.6C58.2998 552.9 58.8998 553.2 59.4998 553.3C60.1998 553.5 60.8998 553.5 61.6998 553.5C63.3998 553.5 64.6998 553.1 65.6998 552.4C66.6998 551.7 67.1998 550.7 67.1998 549.4C67.1998 548.1 66.8998 547.6 66.1998 546.9C65.4998 546.2 64.5998 545.8 63.2998 545.7L63.7998 543.8C65.7998 543.7 67.5998 543.3 68.9998 542.6C70.7998 541.8 72.0998 540.7 72.9998 539.3C73.8998 537.9 74.2998 536.5 74.2998 534.9C74.2998 533.3 73.9998 531.9 73.2998 530.9C72.5998 529.9 71.6998 529 70.5998 528.4L70.7998 528.5Z" fill="#0B273C"/>
<path d="M97.6 529.5H113.4V525.7H97.6V516.1H115.3V512.2H93.2V543.6H115.9V539.7H97.6V529.5Z" fill="#0B273C"/>
<path d="M127.7 512.2H123.2V543.6H144.7V539.7H127.7V512.2Z" fill="#0B273C"/>
<path d="M172.3 527.8C171.8 527.6 171.4 527.4 170.8 527.3C172.1 526.7 173.1 525.8 173.9 524.6C174.7 523.4 175 522 175 520.3C175 517.8 174 515.8 172.1 514.4C170.2 513 167.4 512.2 163.8 512.2H149.7V543.6H164.7C168.7 543.6 171.7 542.9 173.7 541.4C175.7 539.9 176.7 537.8 176.7 535.1C176.7 532.4 176.3 531.8 175.5 530.6C174.7 529.4 173.6 528.5 172.2 527.8H172.3ZM163.5 515.8C165.8 515.8 167.5 516.2 168.8 517.1C170.1 517.9 170.7 519.2 170.7 520.9C170.7 522.6 170.1 523.8 168.8 524.7C167.5 525.5 165.8 526 163.5 526H154.3V516H163.5V515.8ZM170.3 538.7C169 539.5 167.1 540 164.6 540H154.3V529.6H164.6C167.1 529.6 169 530 170.3 530.9C171.6 531.7 172.3 533.1 172.3 534.9C172.3 536.7 171.6 538 170.3 538.8V538.7Z" fill="#0B273C"/>
<path d="M186 503.5C185.3 503.5 184.6 503.8 184.1 504.3C183.6 504.8 183.3 505.4 183.3 506.2C183.3 507 183.6 507.6 184.1 508.1C184.6 508.6 185.2 508.9 186 508.9C186.8 508.9 187.4 508.6 187.9 508.1C188.4 507.6 188.7 507 188.7 506.2C188.7 505.4 188.4 504.8 187.9 504.3C187.4 503.8 186.8 503.5 186 503.5Z" fill="#0B273C"/>
<path d="M188.2 512.2H183.7V543.6H188.2V512.2Z" fill="#0B273C"/>
<path d="M215.2 528.5C214.1 527.9 212.8 527.4 211.5 527C210.1 526.6 208.8 526.3 207.4 525.9C206.1 525.6 204.8 525.2 203.7 524.8C202.6 524.4 201.7 523.9 201 523.2C200.3 522.5 199.9 521.7 199.9 520.6C199.9 519.5 200.2 518.8 200.7 518.1C201.2 517.4 202.1 516.8 203.2 516.3C204.3 515.9 205.8 515.6 207.5 515.6C209.2 515.6 210.4 515.8 211.8 516.2C213.3 516.6 214.7 517.3 216.1 518.1L217.6 514.5C216.3 513.6 214.7 512.9 212.9 512.4C211.1 511.9 209.3 511.7 207.5 511.7C204.7 511.7 202.5 512.1 200.7 512.9C198.9 513.7 197.6 514.8 196.8 516.2C195.9 517.6 195.5 519 195.5 520.7C195.5 522.4 195.8 523.7 196.5 524.8C197.2 525.9 198.1 526.7 199.2 527.3C200.3 527.9 201.6 528.4 202.9 528.8C204.3 529.2 205.6 529.6 207 529.9C208.3 530.2 209.6 530.5 210.7 531C211.8 531.4 212.7 531.9 213.4 532.6C214.1 533.3 214.5 534.1 214.5 535.2C214.5 536.3 214.2 537 213.7 537.7C213.2 538.4 212.3 539 211.2 539.4C210.1 539.8 208.6 540 206.8 540C205 540 202.9 539.7 201 539C199.1 538.3 197.6 537.4 196.4 536.4L194.7 539.9C196 541.1 197.7 542 199.9 542.7C202.1 543.4 204.4 543.8 206.8 543.8C209.2 543.8 211.8 543.4 213.6 542.6C215.4 541.8 216.7 540.7 217.6 539.3C218.5 537.9 218.9 536.5 218.9 534.9C218.9 533.3 218.6 531.9 217.9 530.9C217.2 529.9 216.3 529 215.2 528.4V528.5Z" fill="#0B273C"/>
<path d="M229.9 529.5H245.7V525.7H229.9V516.1H247.6V512.2H225.5V543.6H248.2V539.7H229.9V529.5Z" fill="#0B273C"/>
<path d="M273 528.5C271.9 527.9 270.6 527.4 269.3 527C267.9 526.6 266.6 526.3 265.2 525.9C263.9 525.6 262.6 525.2 261.5 524.8C260.4 524.4 259.5 523.9 258.8 523.2C258.1 522.5 257.7 521.7 257.7 520.6C257.7 519.5 258 518.8 258.5 518.1C259 517.4 259.9 516.8 261 516.3C262.1 515.9 263.6 515.6 265.3 515.6C267 515.6 268.2 515.8 269.6 516.2C271.1 516.6 272.5 517.3 273.9 518.1L275.4 514.5C274.1 513.6 272.5 512.9 270.7 512.4C268.9 511.9 267.1 511.7 265.3 511.7C262.5 511.7 260.3 512.1 258.5 512.9C256.7 513.7 255.4 514.8 254.6 516.2C253.7 517.6 253.3 519 253.3 520.7C253.3 522.4 253.6 523.7 254.3 524.8C255 525.9 255.9 526.7 257 527.3C258.1 527.9 259.4 528.4 260.7 528.8C262.1 529.2 263.4 529.6 264.8 529.9C266.1 530.2 267.4 530.5 268.5 531C269.6 531.4 270.5 531.9 271.2 532.6C271.9 533.3 272.3 534.1 272.3 535.2C272.3 536.3 272 537 271.5 537.7C271 538.4 270.1 539 269 539.4C267.9 539.8 266.4 540 264.6 540C262.8 540 260.7 539.7 258.8 539C256.9 538.3 255.4 537.4 254.2 536.4L252.5 539.9C253.8 541.1 255.5 542 257.7 542.7C259.9 543.4 262.2 543.8 264.6 543.8C267 543.8 269.6 543.4 271.4 542.6C273.2 541.8 274.5 540.7 275.4 539.3C276.3 537.9 276.7 536.5 276.7 534.9C276.7 533.3 276.4 531.9 275.7 530.9C275 529.9 274.1 529 273 528.4V528.5Z" fill="#0B273C"/>
<path d="M287.8 512.2H283.3V543.6H287.8V512.2Z" fill="#0B273C"/>
<path d="M285.6 503.5C284.9 503.5 284.2 503.8 283.7 504.3C283.2 504.8 282.9 505.4 282.9 506.2C282.9 507 283.2 507.6 283.7 508.1C284.2 508.6 284.8 508.9 285.6 508.9C286.4 508.9 287 508.6 287.5 508.1C288 507.6 288.3 507 288.3 506.2C288.3 505.4 288 504.8 287.5 504.3C287 503.8 286.4 503.5 285.6 503.5Z" fill="#0B273C"/>
<path d="M333.2 529.8L329.7 528.7C329.3 530.9 328.6 532.8 327.7 534.4L320 526.7C321.2 526 322.2 525.4 323 524.8C324.3 523.8 325.2 522.9 325.8 521.8C326.4 520.8 326.7 519.7 326.7 518.5C326.7 517.3 326.4 516 325.7 515C325.1 514 324.2 513.3 323 512.8C321.8 512.3 320.5 512 318.9 512C317.3 512 315.7 512.3 314.4 512.9C313.1 513.5 312.1 514.3 311.4 515.4C310.7 516.5 310.3 517.7 310.3 519.1C310.3 520.5 310.4 520.7 310.7 521.5C311 522.3 311.4 523.1 312 523.9C312.5 524.6 313.2 525.4 314.1 526.3C312.7 527.1 311.4 527.9 310.4 528.7C309 529.8 308 530.9 307.4 532.1C306.8 533.3 306.5 534.6 306.5 536C306.5 537.4 307 539 307.9 540.3C308.9 541.5 310.2 542.5 311.8 543.2C313.4 543.9 315.3 544.2 317.4 544.2C319.5 544.2 322.4 543.6 324.6 542.5C325.8 541.9 326.9 541.1 327.9 540.1L332.1 544.3L334.5 541.4L330.3 537.2C331.6 535.2 332.5 532.8 333.1 530L333.2 529.8ZM315.6 516.1C316.4 515.4 317.5 515 318.9 515C320.3 515 321.3 515.3 322 516C322.7 516.6 323.1 517.5 323.1 518.5C323.1 519.5 322.9 519.9 322.5 520.6C322.1 521.2 321.3 521.9 320.3 522.6C319.6 523.1 318.7 523.6 317.7 524.2C316.9 523.4 316.3 522.8 315.9 522.2C315.4 521.6 315 521 314.8 520.5C314.6 520 314.5 519.4 314.5 518.9C314.5 517.8 314.9 516.8 315.7 516.1H315.6ZM323.3 539C321.7 539.9 319.9 540.3 317.9 540.3C315.9 540.3 315.3 540.1 314.2 539.7C313.1 539.3 312.3 538.7 311.7 537.9C311.1 537.1 310.8 536.3 310.8 535.3C310.8 534.3 311 533.5 311.5 532.7C311.9 531.9 312.7 531.1 313.7 530.3C314.5 529.7 315.5 529.1 316.7 528.4L325.6 537.3C324.9 538 324.2 538.5 323.3 539Z" fill="#0B273C"/>
<path d="M371.4 513.5C369.5 512.6 367.1 512.2 364.4 512.2H352.2V543.6H356.7V534.1H364.5C367.2 534.1 369.6 533.7 371.5 532.8C373.4 531.9 374.9 530.7 376 529C377 527.4 377.6 525.4 377.6 523.2C377.6 521 377.1 519 376 517.3C375 515.7 373.5 514.4 371.5 513.5H371.4ZM370.7 528.3C369.2 529.5 367 530.1 364.2 530.1H356.6V516H364.2C367.1 516 369.2 516.6 370.7 517.8C372.2 519 372.9 520.8 372.9 523C372.9 525.2 372.2 527 370.7 528.2V528.3Z" fill="#0B273C"/>
<path d="M388.5 529.5H404.2V525.7H388.5V516.1H406.1V512.2H384V543.6H406.8V539.7H388.5V529.5Z" fill="#0B273C"/>
<path d="M433.3 532.7C435.2 531.8 436.7 530.6 437.8 529C438.8 527.4 439.4 525.4 439.4 523.2C439.4 521 438.9 519 437.8 517.3C436.8 515.7 435.3 514.4 433.3 513.5C431.4 512.6 429 512.2 426.3 512.2H414.1V543.6H418.6V534.1H426.4C427.1 534.1 427.8 534.1 428.4 534.1L435.1 543.7H440L432.5 533.2C432.8 533.1 433.1 533 433.4 532.9L433.3 532.7ZM426.1 530.2H418.5V516.1H426.1C429 516.1 431.1 516.7 432.6 517.9C434.1 519.1 434.8 520.9 434.8 523.1C434.8 525.3 434.1 527.1 432.6 528.3C431.1 529.5 428.9 530.2 426.1 530.2Z" fill="#0B273C"/>
<path d="M464.2 528.5C463.1 527.9 461.8 527.4 460.5 527C459.1 526.6 457.8 526.3 456.4 525.9C455.1 525.6 453.8 525.2 452.7 524.8C451.6 524.4 450.7 523.9 450 523.2C449.3 522.5 448.9 521.7 448.9 520.6C448.9 519.5 449.2 518.8 449.7 518.1C450.2 517.4 451.1 516.8 452.2 516.3C453.3 515.9 454.8 515.6 456.5 515.6C458.2 515.6 459.4 515.8 460.8 516.2C462.3 516.6 463.7 517.3 465.1 518.1L466.6 514.5C465.3 513.6 463.7 512.9 461.9 512.4C460.1 511.9 458.3 511.7 456.5 511.7C453.7 511.7 451.5 512.1 449.7 512.9C447.9 513.7 446.6 514.8 445.8 516.2C444.9 517.6 444.5 519 444.5 520.7C444.5 522.4 444.8 523.7 445.5 524.8C446.2 525.9 447.1 526.7 448.2 527.3C449.3 527.9 450.6 528.4 451.9 528.8C453.3 529.2 454.6 529.6 456 529.9C457.3 530.2 458.6 530.5 459.7 531C460.8 531.4 461.7 531.9 462.4 532.6C463.1 533.3 463.5 534.1 463.5 535.2C463.5 536.3 463.2 537 462.7 537.7C462.2 538.4 461.3 539 460.2 539.4C459.1 539.8 457.6 540 455.8 540C454 540 451.9 539.7 450 539C448.1 538.3 446.6 537.4 445.4 536.4L443.7 539.9C445 541.1 446.7 542 448.9 542.7C451.1 543.4 453.4 543.8 455.8 543.8C458.2 543.8 460.8 543.4 462.6 542.6C464.4 541.8 465.7 540.7 466.6 539.3C467.5 537.9 467.9 536.5 467.9 534.9C467.9 533.3 467.6 531.9 466.9 530.9C466.2 529.9 465.3 529 464.2 528.4V528.5Z" fill="#0B273C"/>
<path d="M500.5 516.4C499 515 497.2 513.8 495.2 513C493.2 512.2 491 511.8 488.6 511.8C486.2 511.8 484 512.2 481.9 513C479.9 513.8 478.1 514.9 476.6 516.4C475.1 517.8 473.9 519.5 473.1 521.5C472.3 523.4 471.8 525.6 471.8 527.9C471.8 530.2 472.2 532.3 473.1 534.3C473.9 536.2 475.1 537.9 476.6 539.4C478.1 540.8 479.9 542 481.9 542.8C483.9 543.6 486.2 544 488.6 544C491 544 493.2 543.6 495.2 542.8C497.2 542 499 540.9 500.5 539.4C502 538 503.2 536.3 504 534.3C504.8 532.4 505.2 530.2 505.2 527.9C505.2 525.6 504.8 523.4 504 521.5C503.2 519.6 502 517.9 500.5 516.4ZM499.8 532.7C499.2 534.2 498.3 535.4 497.2 536.5C496.1 537.6 494.8 538.4 493.3 539C491.8 539.6 490.2 539.9 488.5 539.9C486.8 539.9 485.1 539.6 483.6 539C482.1 538.4 480.8 537.6 479.7 536.5C478.6 535.4 477.7 534.1 477.1 532.7C476.5 531.2 476.2 529.6 476.2 527.9C476.2 526.2 476.5 524.6 477.1 523.1C477.7 521.6 478.6 520.4 479.7 519.3C480.8 518.2 482.1 517.4 483.6 516.8C485.1 516.2 486.7 515.9 488.5 515.9C490.3 515.9 491.8 516.2 493.3 516.8C494.8 517.4 496.1 518.2 497.2 519.3C498.3 520.4 499.1 521.7 499.8 523.1C500.4 524.6 500.7 526.2 500.7 527.9C500.7 529.6 500.4 531.2 499.8 532.7Z" fill="#0B273C"/>
<path d="M534.6 535.6L515.8 512.2H512.1V543.6H516.6V520.2L535.4 543.6H539.1V512.2H534.6V535.6Z" fill="#0B273C"/>
<path d="M553 529.5H568.7V525.7H553V516.1H570.6V512.2H548.5V543.6H571.3V539.7H553V529.5Z" fill="#0B273C"/>
<path d="M583 512.2H578.5V543.6H600V539.7H583V512.2Z" fill="#0B273C"/>
<path d="M643.8 512.2H638.7L621.7 529.7V512.2H617.2V543.6H621.7V535.5L627.4 529.6L639.4 543.6H644.7L630.4 526.3L643.8 512.2Z" fill="#0B273C"/>
<path d="M653.9 512.2H649.4V543.6H653.9V512.2Z" fill="#0B273C"/>
<path d="M687.8 512.2H683.4L673.3 528.8L663.2 512.2H658.4L670.9 532.6V543.6H675.3V532.7L687.8 512.2Z" fill="#0B273C"/>
<path d="M699.9 512.2L685.7 543.6H690.3L693.7 535.8H710.4L713.8 543.6H718.5L704.2 512.2H699.8H699.9ZM695.3 532.1L702.1 516.7L708.9 532.1H695.4H695.3Z" fill="#0B273C"/>
<path d="M723.2 543.6H727.7V530.9H743.5V527H727.7V516.1H745.4V512.2H723.2V543.6Z" fill="#0B273C"/>
<path d="M756.2 529.5H771.9V525.7H756.2V516.1H773.8V512.2H751.7V543.6H774.5V539.7H756.2V529.5Z" fill="#0B273C"/>
<path d="M777.2 516.1H788V543.6H792.4V516.1H803.2V512.2H777.2V516.1Z" fill="#0B273C"/>
<path d="M812.5 512.2H808V543.6H829.5V539.7H812.5V512.2Z" fill="#0B273C"/>
<path d="M839.2 529.5H854.9V525.7H839.2V516.1H856.8V512.2H834.7V543.6H857.4V539.7H839.2V529.5Z" fill="#0B273C"/>
<path d="M884 532.7C885.9 531.8 887.4 530.6 888.5 529C889.5 527.4 890.1 525.4 890.1 523.2C890.1 521 889.6 519 888.5 517.3C887.5 515.7 886 514.4 884 513.5C882.1 512.6 879.7 512.2 877 512.2H864.8V543.6H869.3V534.1H877.1C877.8 534.1 878.5 534.1 879.1 534.1L885.8 543.7H890.7L883.2 533.2C883.5 533.1 883.8 533 884.1 532.9L884 532.7ZM876.8 530.2H869.2V516.1H876.8C879.7 516.1 881.8 516.7 883.3 517.9C884.8 519.1 885.5 520.9 885.5 523.1C885.5 525.3 884.8 527.1 883.3 528.3C881.8 529.5 879.6 530.2 876.8 530.2Z" fill="#0B273C"/>
<path d="M901.8 512.2H897.3V543.6H901.8V512.2Z" fill="#0B273C"/>
<path d="M899.5 508.8C900.2 508.8 900.9 508.5 901.4 508C901.9 507.5 902.2 506.9 902.2 506.1C902.2 505.3 901.9 504.7 901.4 504.2C900.9 503.7 900.3 503.4 899.5 503.4C898.7 503.4 898.1 503.7 897.6 504.2C897.1 504.7 896.8 505.3 896.8 506.1C896.8 506.9 897.1 507.5 897.6 508C898.1 508.5 898.7 508.8 899.5 508.8Z" fill="#0B273C"/>
</svg>
