<svg width="1086" height="765" viewBox="0 0 1086 765" fill="none" xmlns="http://www.w3.org/2000/svg">
<rect width="1086" height="765" rx="97" fill="#F9F6EF"/>
<path d="M1007.4 597.4H78.5C76.0147 597.4 74 599.415 74 601.9V658.9C74 661.385 76.0147 663.4 78.5 663.4H1007.4C1009.89 663.4 1011.9 661.385 1011.9 658.9V601.9C1011.9 599.415 1009.89 597.4 1007.4 597.4Z" fill="#0B273C"/>
<path d="M766.5 460.3C774.2 496.9 800.2 519.5 838.3 518.8C832.8 508.1 830.9 495.7 828.7 483.9C808.1 372.9 796.9 257 779.2 145.2C777.7 135.5 774.6 94.3 757.7 108.1C704.1 210.9 657.6 317.8 605.6 421.5C602.8 427.1 599.5 434.3 596.7 439.4C595.9 440.9 595.5 443.9 593 441.5L444.3 135.5C437.8 122.9 420 84.9 411.7 118.1C407.3 135.7 394.4 208.4 394.9 223.9C395.1 230.2 403.9 252.2 405.7 261.5C419.2 334.2 409.4 418.4 370.2 481.6C365.1 489.9 355.8 499.3 352 507.1C347.3 516.8 347.2 530.1 335.4 535.9C328.4 539.3 321.6 537.7 315.2 539.3C310.2 540.5 299.9 544.5 306.3 549.1C306.9 549.5 307.7 549.9 308.6 550.2C309.4 550.4 310.3 550.6 311.3 550.8H437.5C442.4 550.2 450.7 545.8 446.6 540.8C444.3 538 408 540.5 399.6 529.4C392.3 519.7 398.4 501.1 398.2 489.7L428.3 266.8C430.4 267 431.1 269.1 432 270.7C478.5 356.3 512.9 449.4 562.5 533.5C571.9 549.3 577.1 560.2 588.9 537.4L724.2 260.1L730.7 293.1L747.7 420.4C767.8 425.3 763.4 444.3 766.8 460.5L766.5 460.3Z" fill="#0B273C"/>
<path d="M315.1 126.8C299.9 116.6 269 102 250.8 102H75.1999C75.5999 104.1 74.5999 111.5 75.1999 112.1C76.4999 113.3 98.3999 113.2 108 123.8C116.6 133.2 118.3 155.8 118.9 168.3C124.9 281.1 116 396.4 116.7 509.1C113.2 528.2 104.7 534.6 86.9999 539.9C77.9999 542.6 73.5999 537.6 75.1999 552.4H245.8C253.1 552.4 272.2 547 279.9 544.5C430.6 494 438.3 209.8 315.1 126.8ZM237.3 535.6C228.5 536.4 199.3 536.8 192.4 533.5C186.7 530.8 186.5 523.3 184.6 517.8C186.6 400.4 175.7 275 182.7 158.2C183.2 150.6 185.3 129.5 190 124.3C199.5 113.9 244 116.2 257.2 120.8C328.5 145.8 341.1 291.7 335.7 354.9C330.8 411.7 308.7 529 237.4 535.6H237.3Z" fill="#0B273C"/>
<path d="M974.9 399.7C958.5 327.3 885.4 295.6 837.5 248.8C825 236.6 814 226.6 809.4 208.8C799.7 171 821.6 137.6 860.9 133.8C905.3 129.5 940.3 146.1 951.4 191.2C952.6 196 951.7 204 954 207.1C956.9 210.9 963.9 210.7 964.2 205.3C966.1 176.6 966.7 147.3 966.7 118.7C964.4 113.9 930 107.8 923 107C895.6 103.8 859.6 103.9 833.1 111.2C824.8 113.5 791.5 127.1 788.5 133.9L818 339.3C850.9 368.2 904.2 397.2 914.7 443.1C937.1 541.8 785.8 565.7 757.4 470.9C755.4 464.2 752.2 434.3 750.6 433.2C743 428.1 739.5 442.2 739 447.4C737.1 465.9 735.9 489.4 735.5 507.8C735 534 734.4 540.2 759.9 549.1C866.6 586.6 1004.7 531.6 974.8 399.7H974.9Z" fill="#0B273C"/>
<path d="M117.9 614.2H113.4V645.6H117.9V614.2Z" fill="#FBFAFB"/>
<path d="M115.6 605.5C114.9 605.5 114.2 605.8 113.7 606.3C113.2 606.8 112.9 607.4 112.9 608.2C112.9 609 113.2 609.6 113.7 610.1C114.2 610.6 114.8 610.9 115.6 610.9C116.4 610.9 117 610.6 117.5 610.1C118 609.6 118.3 609 118.3 608.2C118.3 607.4 118 606.8 117.5 606.3C117 605.8 116.4 605.5 115.6 605.5Z" fill="#FBFAFB"/>
<path d="M144.8 630.5C143.7 629.9 142.4 629.4 141.1 629C139.7 628.6 138.4 628.3 137 627.9C135.7 627.6 134.4 627.2 133.3 626.8C132.2 626.4 131.3 625.9 130.6 625.2C129.9 624.5 129.5 623.7 129.5 622.6C129.5 621.5 129.8 620.8 130.3 620.1C130.8 619.4 131.7 618.8 132.8 618.3C133.9 617.9 135.4 617.6 137.1 617.6C138.8 617.6 140 617.8 141.4 618.2C142.9 618.6 144.3 619.3 145.7 620.1L147.2 616.5C145.9 615.6 144.3 614.9 142.5 614.4C140.7 613.9 138.9 613.7 137.1 613.7C134.4 613.7 132.1 614.1 130.3 614.9C128.5 615.7 127.2 616.8 126.4 618.2C125.5 619.6 125.1 621 125.1 622.7C125.1 624.4 125.4 625.7 126.1 626.8C126.8 627.9 127.7 628.7 128.8 629.3C129.9 629.9 131.2 630.4 132.5 630.8C133.9 631.2 135.2 631.6 136.6 631.9C137.9 632.2 139.2 632.5 140.3 633C141.4 633.4 142.3 633.9 143 634.6C143.7 635.3 144.1 636.1 144.1 637.2C144.1 638.3 143.8 639 143.3 639.7C142.8 640.4 141.9 641 140.8 641.4C139.7 641.8 138.2 642 136.4 642C134.6 642 132.5 641.7 130.6 641C128.7 640.3 127.2 639.4 126 638.4L124.3 641.9C125.6 643.1 127.3 644 129.5 644.7C131.4 645.3 133.4 645.7 135.5 645.8L134.5 649.6H135.7C136.6 649.6 137.2 649.8 137.6 650.1C138 650.4 138.2 650.8 138.2 651.4C138.2 652 138 652.4 137.6 652.7C137.2 653 136.6 653.2 135.7 653.2C134.8 653.2 134.6 653.2 134.1 653C133.6 652.9 133.1 652.7 132.6 652.4L131.7 654.6C132.3 654.9 132.9 655.2 133.5 655.3C134.2 655.5 134.9 655.5 135.7 655.5C137.4 655.5 138.7 655.1 139.7 654.4C140.7 653.7 141.2 652.7 141.2 651.4C141.2 650.1 140.9 649.6 140.2 648.9C139.5 648.2 138.6 647.8 137.3 647.7L137.8 645.8C139.8 645.7 141.6 645.3 143 644.6C144.8 643.8 146.1 642.7 147 641.3C147.9 639.9 148.3 638.5 148.3 636.9C148.3 635.3 148 633.9 147.3 632.9C146.6 631.9 145.7 631 144.6 630.4L144.8 630.5Z" fill="#FBFAFB"/>
<path d="M171.6 631.5H187.4V627.7H171.6V618.1H189.3V614.2H167.2V645.6H189.9V641.7H171.6V631.5Z" fill="#FBFAFB"/>
<path d="M201.7 614.2H197.2V645.6H218.7V641.7H201.7V614.2Z" fill="#FBFAFB"/>
<path d="M246.3 629.8C245.8 629.6 245.4 629.4 244.8 629.3C246.1 628.7 247.1 627.8 247.9 626.6C248.7 625.4 249 624 249 622.3C249 619.8 248 617.8 246.1 616.4C244.2 615 241.4 614.2 237.8 614.2H223.7V645.6H238.7C242.7 645.6 245.7 644.9 247.7 643.4C249.7 641.9 250.7 639.8 250.7 637.1C250.7 634.4 250.3 633.8 249.5 632.6C248.7 631.4 247.6 630.5 246.2 629.8H246.3ZM237.5 617.8C239.8 617.8 241.5 618.2 242.8 619.1C244.1 619.9 244.7 621.2 244.7 622.9C244.7 624.6 244.1 625.8 242.8 626.7C241.5 627.5 239.8 628 237.5 628H228.3V618H237.5V617.8ZM244.3 640.7C243 641.5 241.1 642 238.6 642H228.3V631.6H238.6C241.1 631.6 243 632 244.3 632.9C245.6 633.7 246.3 635.1 246.3 636.9C246.3 638.7 245.6 640 244.3 640.8V640.7Z" fill="#FBFAFB"/>
<path d="M260 605.5C259.3 605.5 258.6 605.8 258.1 606.3C257.6 606.8 257.3 607.4 257.3 608.2C257.3 609 257.6 609.6 258.1 610.1C258.6 610.6 259.2 610.9 260 610.9C260.8 610.9 261.4 610.6 261.9 610.1C262.4 609.6 262.7 609 262.7 608.2C262.7 607.4 262.4 606.8 261.9 606.3C261.4 605.8 260.8 605.5 260 605.5Z" fill="#FBFAFB"/>
<path d="M262.2 614.2H257.7V645.6H262.2V614.2Z" fill="#FBFAFB"/>
<path d="M289.2 630.5C288.1 629.9 286.8 629.4 285.5 629C284.1 628.6 282.8 628.3 281.4 627.9C280.1 627.6 278.8 627.2 277.7 626.8C276.6 626.4 275.7 625.9 275 625.2C274.3 624.5 273.9 623.7 273.9 622.6C273.9 621.5 274.2 620.8 274.7 620.1C275.2 619.4 276.1 618.8 277.2 618.3C278.3 617.9 279.8 617.6 281.5 617.6C283.2 617.6 284.4 617.8 285.8 618.2C287.3 618.6 288.7 619.3 290.1 620.1L291.6 616.5C290.3 615.6 288.7 614.9 286.9 614.4C285.1 613.9 283.3 613.7 281.5 613.7C278.7 613.7 276.5 614.1 274.7 614.9C272.9 615.7 271.6 616.8 270.8 618.2C269.9 619.6 269.5 621 269.5 622.7C269.5 624.4 269.8 625.7 270.5 626.8C271.2 627.9 272.1 628.7 273.2 629.3C274.3 629.9 275.6 630.4 276.9 630.8C278.3 631.2 279.6 631.6 281 631.9C282.3 632.2 283.6 632.5 284.7 633C285.8 633.4 286.7 633.9 287.4 634.6C288.1 635.3 288.5 636.1 288.5 637.2C288.5 638.3 288.2 639 287.7 639.7C287.2 640.4 286.3 641 285.2 641.4C284.1 641.8 282.6 642 280.8 642C279 642 276.9 641.7 275 641C273.1 640.3 271.6 639.4 270.4 638.4L268.7 641.9C270 643.1 271.7 644 273.9 644.7C276.1 645.4 278.4 645.8 280.8 645.8C283.2 645.8 285.8 645.4 287.6 644.6C289.4 643.8 290.7 642.7 291.6 641.3C292.5 639.9 292.9 638.5 292.9 636.9C292.9 635.3 292.6 633.9 291.9 632.9C291.2 631.9 290.3 631 289.2 630.4V630.5Z" fill="#FBFAFB"/>
<path d="M303.9 631.5H319.7V627.7H303.9V618.1H321.6V614.2H299.5V645.6H322.2V641.7H303.9V631.5Z" fill="#FBFAFB"/>
<path d="M347 630.5C345.9 629.9 344.6 629.4 343.3 629C341.9 628.6 340.6 628.3 339.2 627.9C337.9 627.6 336.6 627.2 335.5 626.8C334.4 626.4 333.5 625.9 332.8 625.2C332.1 624.5 331.7 623.7 331.7 622.6C331.7 621.5 332 620.8 332.5 620.1C333 619.4 333.9 618.8 335 618.3C336.1 617.9 337.6 617.6 339.3 617.6C341 617.6 342.2 617.8 343.6 618.2C345.1 618.6 346.5 619.3 347.9 620.1L349.4 616.5C348.1 615.6 346.5 614.9 344.7 614.4C342.9 613.9 341.1 613.7 339.3 613.7C336.5 613.7 334.3 614.1 332.5 614.9C330.7 615.7 329.4 616.8 328.6 618.2C327.7 619.6 327.3 621 327.3 622.7C327.3 624.4 327.6 625.7 328.3 626.8C329 627.9 329.9 628.7 331 629.3C332.1 629.9 333.4 630.4 334.7 630.8C336.1 631.2 337.4 631.6 338.8 631.9C340.1 632.2 341.4 632.5 342.5 633C343.6 633.4 344.5 633.9 345.2 634.6C345.9 635.3 346.3 636.1 346.3 637.2C346.3 638.3 346 639 345.5 639.7C345 640.4 344.1 641 343 641.4C341.9 641.8 340.4 642 338.6 642C336.8 642 334.7 641.7 332.8 641C330.9 640.3 329.4 639.4 328.2 638.4L326.5 641.9C327.8 643.1 329.5 644 331.7 644.7C333.9 645.4 336.2 645.8 338.6 645.8C341 645.8 343.6 645.4 345.4 644.6C347.2 643.8 348.5 642.7 349.4 641.3C350.3 639.9 350.7 638.5 350.7 636.9C350.7 635.3 350.4 633.9 349.7 632.9C349 631.9 348.1 631 347 630.4V630.5Z" fill="#FBFAFB"/>
<path d="M361.8 614.2H357.3V645.6H361.8V614.2Z" fill="#FBFAFB"/>
<path d="M359.6 605.5C358.9 605.5 358.2 605.8 357.7 606.3C357.2 606.8 356.9 607.4 356.9 608.2C356.9 609 357.2 609.6 357.7 610.1C358.2 610.6 358.8 610.9 359.6 610.9C360.4 610.9 361 610.6 361.5 610.1C362 609.6 362.3 609 362.3 608.2C362.3 607.4 362 606.8 361.5 606.3C361 605.8 360.4 605.5 359.6 605.5Z" fill="#FBFAFB"/>
<path d="M407.2 631.8L403.7 630.7C403.3 632.9 402.6 634.8 401.7 636.4L394 628.7C395.2 628 396.2 627.4 397 626.8C398.3 625.8 399.2 624.9 399.8 623.8C400.4 622.8 400.7 621.7 400.7 620.5C400.7 619.3 400.4 618 399.7 617C399.1 616 398.2 615.3 397 614.8C395.8 614.3 394.5 614 392.9 614C391.3 614 389.7 614.3 388.4 614.9C387.1 615.5 386.1 616.3 385.4 617.4C384.7 618.5 384.3 619.7 384.3 621.1C384.3 622.5 384.4 622.7 384.7 623.5C385 624.3 385.4 625.1 386 625.9C386.5 626.6 387.2 627.4 388.1 628.3C386.7 629.1 385.4 629.9 384.4 630.7C383 631.8 382 632.9 381.4 634.1C380.8 635.3 380.5 636.6 380.5 638C380.5 639.4 381 641 381.9 642.3C382.9 643.5 384.2 644.5 385.8 645.2C387.4 645.9 389.3 646.2 391.4 646.2C393.5 646.2 396.4 645.6 398.6 644.5C399.8 643.9 400.9 643.1 401.9 642.1L406.1 646.3L408.5 643.4L404.3 639.2C405.6 637.2 406.5 634.8 407.1 632L407.2 631.8ZM389.6 618.1C390.4 617.4 391.5 617 392.9 617C394.3 617 395.3 617.3 396 618C396.7 618.6 397.1 619.5 397.1 620.5C397.1 621.5 396.9 621.9 396.5 622.6C396.1 623.2 395.3 623.9 394.3 624.6C393.6 625.1 392.7 625.6 391.7 626.2C390.9 625.4 390.3 624.8 389.9 624.2C389.4 623.6 389 623 388.8 622.5C388.6 622 388.5 621.4 388.5 620.9C388.5 619.8 388.9 618.8 389.7 618.1H389.6ZM397.3 641C395.7 641.9 393.9 642.3 391.9 642.3C389.9 642.3 389.3 642.1 388.2 641.7C387.1 641.3 386.3 640.7 385.7 639.9C385.1 639.1 384.8 638.3 384.8 637.3C384.8 636.3 385 635.5 385.5 634.7C385.9 633.9 386.7 633.1 387.7 632.3C388.5 631.7 389.5 631.1 390.7 630.4L399.6 639.3C398.9 640 398.2 640.5 397.3 641Z" fill="#FBFAFB"/>
<path d="M445.4 615.5C443.5 614.6 441.1 614.2 438.4 614.2H426.2V645.6H430.7V636.1H438.5C441.2 636.1 443.6 635.7 445.5 634.8C447.4 633.9 448.9 632.7 450 631C451 629.4 451.6 627.4 451.6 625.2C451.6 623 451.1 621 450 619.3C449 617.7 447.5 616.4 445.5 615.5H445.4ZM444.7 630.3C443.2 631.5 441 632.1 438.2 632.1H430.6V618H438.2C441.1 618 443.2 618.6 444.7 619.8C446.2 621 446.9 622.8 446.9 625C446.9 627.2 446.2 629 444.7 630.2V630.3Z" fill="#FBFAFB"/>
<path d="M462.5 631.5H478.2V627.7H462.5V618.1H480.1V614.2H458V645.6H480.8V641.7H462.5V631.5Z" fill="#FBFAFB"/>
<path d="M507.3 634.7C509.2 633.8 510.7 632.6 511.8 631C512.8 629.4 513.4 627.4 513.4 625.2C513.4 623 512.9 621 511.8 619.3C510.8 617.7 509.3 616.4 507.3 615.5C505.4 614.6 503 614.2 500.3 614.2H488.1V645.6H492.6V636.1H500.4C501.1 636.1 501.8 636.1 502.4 636.1L509.1 645.7H514L506.5 635.2C506.8 635.1 507.1 635 507.4 634.9L507.3 634.7ZM500.1 632.2H492.5V618.1H500.1C503 618.1 505.1 618.7 506.6 619.9C508.1 621.1 508.8 622.9 508.8 625.1C508.8 627.3 508.1 629.1 506.6 630.3C505.1 631.5 502.9 632.2 500.1 632.2Z" fill="#FBFAFB"/>
<path d="M538.2 630.5C537.1 629.9 535.8 629.4 534.5 629C533.1 628.6 531.8 628.3 530.4 627.9C529.1 627.6 527.8 627.2 526.7 626.8C525.6 626.4 524.7 625.9 524 625.2C523.3 624.5 522.9 623.7 522.9 622.6C522.9 621.5 523.2 620.8 523.7 620.1C524.2 619.4 525.1 618.8 526.2 618.3C527.3 617.9 528.8 617.6 530.5 617.6C532.2 617.6 533.4 617.8 534.8 618.2C536.3 618.6 537.7 619.3 539.1 620.1L540.6 616.5C539.3 615.6 537.7 614.9 535.9 614.4C534.1 613.9 532.3 613.7 530.5 613.7C527.7 613.7 525.5 614.1 523.7 614.9C521.9 615.7 520.6 616.8 519.8 618.2C518.9 619.6 518.5 621 518.5 622.7C518.5 624.4 518.8 625.7 519.5 626.8C520.2 627.9 521.1 628.7 522.2 629.3C523.3 629.9 524.6 630.4 525.9 630.8C527.3 631.2 528.6 631.6 530 631.9C531.3 632.2 532.6 632.5 533.7 633C534.8 633.4 535.7 633.9 536.4 634.6C537.1 635.3 537.5 636.1 537.5 637.2C537.5 638.3 537.2 639 536.7 639.7C536.2 640.4 535.3 641 534.2 641.4C533.1 641.8 531.6 642 529.8 642C528 642 525.9 641.7 524 641C522.1 640.3 520.6 639.4 519.4 638.4L517.7 641.9C519 643.1 520.7 644 522.9 644.7C525.1 645.4 527.4 645.8 529.8 645.8C532.2 645.8 534.8 645.4 536.6 644.6C538.4 643.8 539.7 642.7 540.6 641.3C541.5 639.9 541.9 638.5 541.9 636.9C541.9 635.3 541.6 633.9 540.9 632.9C540.2 631.9 539.3 631 538.2 630.4V630.5Z" fill="#FBFAFB"/>
<path d="M574.5 618.4C573 617 571.2 615.8 569.2 615C567.2 614.2 565 613.8 562.6 613.8C560.2 613.8 558 614.2 555.9 615C553.9 615.8 552.1 616.9 550.6 618.4C549.1 619.8 547.9 621.5 547.1 623.5C546.3 625.4 545.8 627.6 545.8 629.9C545.8 632.2 546.2 634.3 547.1 636.3C547.9 638.2 549.1 639.9 550.6 641.4C552.1 642.8 553.9 644 555.9 644.8C557.9 645.6 560.2 646 562.6 646C565 646 567.2 645.6 569.2 644.8C571.2 644 573 642.9 574.5 641.4C576 640 577.2 638.3 578 636.3C578.8 634.4 579.2 632.2 579.2 629.9C579.2 627.6 578.8 625.4 578 623.5C577.2 621.6 576 619.9 574.5 618.4ZM573.8 634.7C573.2 636.2 572.3 637.4 571.2 638.5C570.1 639.6 568.8 640.4 567.3 641C565.8 641.6 564.2 641.9 562.5 641.9C560.8 641.9 559.1 641.6 557.6 641C556.1 640.4 554.8 639.6 553.7 638.5C552.6 637.4 551.7 636.1 551.1 634.7C550.5 633.2 550.2 631.6 550.2 629.9C550.2 628.2 550.5 626.6 551.1 625.1C551.7 623.6 552.6 622.4 553.7 621.3C554.8 620.2 556.1 619.4 557.6 618.8C559.1 618.2 560.7 617.9 562.5 617.9C564.3 617.9 565.8 618.2 567.3 618.8C568.8 619.4 570.1 620.2 571.2 621.3C572.3 622.4 573.1 623.7 573.8 625.1C574.4 626.6 574.7 628.2 574.7 629.9C574.7 631.6 574.4 633.2 573.8 634.7Z" fill="#FBFAFB"/>
<path d="M608.6 637.6L589.8 614.2H586.1V645.6H590.6V622.2L609.4 645.6H613.1V614.2H608.6V637.6Z" fill="#FBFAFB"/>
<path d="M627 631.5H642.7V627.7H627V618.1H644.6V614.2H622.5V645.6H645.3V641.7H627V631.5Z" fill="#FBFAFB"/>
<path d="M657 614.2H652.5V645.6H674V641.7H657V614.2Z" fill="#FBFAFB"/>
<path d="M717.8 614.2H712.7L695.7 631.7V614.2H691.2V645.6H695.7V637.5L701.4 631.6L713.4 645.6H718.7L704.4 628.3L717.8 614.2Z" fill="#FBFAFB"/>
<path d="M727.9 614.2H723.4V645.6H727.9V614.2Z" fill="#FBFAFB"/>
<path d="M761.8 614.2H757.4L747.3 630.8L737.2 614.2H732.4L744.9 634.6V645.6H749.3V634.7L761.8 614.2Z" fill="#FBFAFB"/>
<path d="M773.9 614.2L759.7 645.6H764.3L767.7 637.8H784.4L787.8 645.6H792.5L778.2 614.2H773.8H773.9ZM769.3 634.1L776.1 618.7L782.9 634.1H769.4H769.3Z" fill="#FBFAFB"/>
<path d="M797.2 645.6H801.7V632.9H817.5V629H801.7V618.1H819.4V614.2H797.2V645.6Z" fill="#FBFAFB"/>
<path d="M830.2 631.5H845.9V627.7H830.2V618.1H847.8V614.2H825.7V645.6H848.5V641.7H830.2V631.5Z" fill="#FBFAFB"/>
<path d="M851.2 618.1H862V645.6H866.4V618.1H877.2V614.2H851.2V618.1Z" fill="#FBFAFB"/>
<path d="M886.5 614.2H882V645.6H903.5V641.7H886.5V614.2Z" fill="#FBFAFB"/>
<path d="M913.2 631.5H928.9V627.7H913.2V618.1H930.8V614.2H908.7V645.6H931.4V641.7H913.2V631.5Z" fill="#FBFAFB"/>
<path d="M958 634.7C959.9 633.8 961.4 632.6 962.5 631C963.5 629.4 964.1 627.4 964.1 625.2C964.1 623 963.6 621 962.5 619.3C961.5 617.7 960 616.4 958 615.5C956.1 614.6 953.7 614.2 951 614.2H938.8V645.6H943.3V636.1H951.1C951.8 636.1 952.5 636.1 953.1 636.1L959.8 645.7H964.7L957.2 635.2C957.5 635.1 957.8 635 958.1 634.9L958 634.7ZM950.8 632.2H943.2V618.1H950.8C953.7 618.1 955.8 618.7 957.3 619.9C958.8 621.1 959.5 622.9 959.5 625.1C959.5 627.3 958.8 629.1 957.3 630.3C955.8 631.5 953.6 632.2 950.8 632.2Z" fill="#FBFAFB"/>
<path d="M975.8 614.2H971.3V645.6H975.8V614.2Z" fill="#FBFAFB"/>
<path d="M973.5 610.8C974.2 610.8 974.9 610.5 975.4 610C975.9 609.5 976.2 608.9 976.2 608.1C976.2 607.3 975.9 606.7 975.4 606.2C974.9 605.7 974.3 605.4 973.5 605.4C972.7 605.4 972.1 605.7 971.6 606.2C971.1 606.7 970.8 607.3 970.8 608.1C970.8 608.9 971.1 609.5 971.6 610C972.1 610.5 972.7 610.8 973.5 610.8Z" fill="#FBFAFB"/>
</svg>
