<svg width="905" height="459" viewBox="0 0 905 459" fill="none" xmlns="http://www.w3.org/2000/svg">
<path d="M691.623 358.3C699.323 394.9 725.323 417.5 763.423 416.8C757.923 406.1 756.023 393.7 753.823 381.9C733.223 270.9 722.023 155 704.323 43.2C702.823 33.5 699.723 -7.70004 682.823 6.09996C629.223 108.9 582.723 215.8 530.723 319.5C527.923 325.1 524.623 332.3 521.823 337.4C521.023 338.9 520.623 341.9 518.123 339.5L369.423 33.5C362.923 20.9 345.123 -17.1 336.823 16.1C332.423 33.7 319.523 106.4 320.023 121.9C320.223 128.2 329.023 150.2 330.823 159.5C344.323 232.2 334.523 316.4 295.323 379.6C290.223 387.9 280.923 397.3 277.123 405.1C272.423 414.8 272.323 428.1 260.523 433.9C253.523 437.3 246.723 435.7 240.323 437.3C235.323 438.5 225.023 442.5 231.423 447.1C232.023 447.5 232.823 447.9 233.723 448.2C234.523 448.4 235.423 448.6 236.423 448.8H362.623C367.523 448.2 375.823 443.8 371.723 438.8C369.423 436 333.123 438.5 324.723 427.4C317.423 417.7 323.523 399.1 323.323 387.7L353.423 164.8C355.523 165 356.223 167.1 357.123 168.7C403.623 254.3 438.023 347.4 487.623 431.5C497.023 447.3 502.223 458.2 514.023 435.4L649.323 158.1L655.823 191.1L672.823 318.4C692.923 323.3 688.523 342.3 691.923 358.5L691.623 358.3Z" fill="#0C273C"/>
<path d="M240.223 24.8C225.023 14.6 194.123 0 175.923 0H0.323398C0.723398 2.1 -0.276602 9.50001 0.323398 10.1C1.6234 11.3 23.5234 11.2 33.1234 21.8C41.7234 31.2 43.4234 53.8 44.0234 66.3C50.0234 179.1 41.1234 294.4 41.8234 407.1C38.3234 426.2 29.8234 432.6 12.1234 437.9C3.1234 440.6 -1.2766 435.6 0.323398 450.4H170.923C178.223 450.4 197.323 445 205.023 442.5C355.723 392 363.423 107.8 240.223 24.8ZM162.423 433.6C153.623 434.4 124.423 434.8 117.523 431.5C111.823 428.8 111.623 421.3 109.723 415.8C111.723 298.4 100.823 173 107.823 56.2C108.323 48.6 110.423 27.5 115.123 22.3C124.623 11.9 169.123 14.2 182.323 18.8C253.623 43.8 266.223 189.7 260.823 252.9C255.923 309.7 233.823 427 162.523 433.6H162.423Z" fill="#0B263B"/>
<path d="M900.023 297.7C883.623 225.3 810.524 193.6 762.624 146.8C750.124 134.6 739.123 124.6 734.523 106.8C724.823 69 746.723 35.6 786.023 31.8C830.423 27.5 865.423 44.1 876.523 89.2C877.723 94 876.824 102 879.124 105.1C882.024 108.9 889.023 108.7 889.323 103.3C891.223 74.6 891.823 45.3 891.823 16.7C889.523 11.9 855.124 5.79995 848.124 4.99995C820.724 1.79995 784.724 1.89995 758.224 9.19995C749.924 11.5 716.624 25.1 713.624 31.9L743.124 237.3C776.024 266.2 829.323 295.2 839.823 341.1C862.223 439.8 710.923 463.7 682.523 368.9C680.523 362.2 677.324 332.3 675.724 331.2C668.124 326.1 664.624 340.2 664.124 345.4C662.224 363.9 661.024 387.4 660.624 405.8C660.124 432 659.523 438.2 685.023 447.1C791.723 484.6 929.824 429.6 899.924 297.7H900.023Z" fill="#0B273C"/>
</svg>
